grf
version=1
nRows=21
nColumns=19
inDegrees=no
endheader
time	ground_force_r_vx	ground_force_r_vy	ground_force_r_vz	ground_force_r_px	ground_force_r_py	ground_force_r_pz	ground_torque_r_x	ground_torque_r_y	ground_torque_r_z	ground_force_l_vx	ground_force_l_vy	ground_force_l_vz	ground_force_l_px	ground_force_l_py	ground_force_l_pz	ground_torque_l_x	ground_torque_l_y	ground_torque_l_z
      1.67400000	   -239.28235767	    421.85226072	   -112.78828509	      0.77809400	      0.00000000	      0.31831156	      1.25762269	     -2.29863649	      0.59303516	      0.00000000	      0.00000000	      0.00000000	      0.00000000	      0.00000000	      0.00000000	      0.00000000	      0.00000000	      0.00000000
      1.67500000	   -255.90681360	    468.51578833	   -119.33620591	      0.76855480	      0.00000000	      0.31622040	      1.49453617	     -2.83170669	      0.70202191	      0.00000000	      0.00000000	      0.00000000	      0.00000000	      0.00000000	      0.00000000	      0.00000000	      0.00000000	      0.00000000
      1.67600000	   -268.06486925	    515.63777826	   -123.96181692	      0.75982713	      0.00000000	      0.31401002	      1.70465349	     -3.39026136	      0.79740523	      0.00000000	      0.00000000	      0.00000000	      0.00000000	      0.00000000	      0.00000000	      0.00000000	      0.00000000	      0.00000000
      1.67700000	   -275.75425087	    562.32249446	   -126.86104859	      0.75212376	      0.00000000	      0.31175471	      1.88100007	     -3.95659182	      0.87807070	      0.00000000	      0.00000000	      0.00000000	      0.00000000	      0.00000000	      0.00000000	      0.00000000	      0.00000000	      0.00000000
      1.67800000	   -277.04000839	    607.45455938	   -127.52964246	      0.74592665	      0.00000000	      0.30948953	      2.00140459	     -4.51046871	      0.93653252	      0.00000000	      0.00000000	      0.00000000	      0.00000000	      0.00000000	      0.00000000	      0.00000000	      0.00000000	      0.00000000
      1.67900000	   -272.84284886	    650.64481822	   -126.45156807	      0.74097171	      0.00000000	      0.30724085	      2.06834369	     -5.03195905	      0.97479036	      0.00000000	      0.00000000	      0.00000000	      0.00000000	      0.00000000	      0.00000000	      0.00000000	      0.00000000	      0.00000000
      1.68000000	   -261.85541626	    690.79641643	   -123.33073071	      0.73746279	      0.00000000	      0.30503010	      2.06244111	     -5.47958607	      0.98559120	      0.00000000	      0.00000000	      0.00000000	      0.00000000	      0.00000000	      0.00000000	      0.00000000	      0.00000000	      0.00000000
      1.68100000	   -245.82686907	    728.24808590	   -118.72240335	      0.73496946	      0.00000000	      0.30286139	      1.99755719	     -5.84302594	      0.97356136	      0.00000000	      0.00000000	      0.00000000	      0.00000000	      0.00000000	      0.00000000	      0.00000000	      0.00000000	      0.00000000
      1.68200000	   -224.44776232	    762.35565277	   -112.49930219	      0.73352127	      0.00000000	      0.30076160	      1.86461032	     -6.07822741	      0.93387598	      0.00000000	      0.00000000	      0.00000000	      0.00000000	      0.00000000	      0.00000000	      0.00000000	      0.00000000	      0.00000000
      1.68300000	   -199.78164541	    794.03429739	   -105.21989053	      0.73272472	      0.00000000	      0.29873113	      1.68541444	     -6.19793171	      0.87400929	      0.00000000	      0.00000000	      0.00000000	      0.00000000	      0.00000000	      0.00000000	      0.00000000	      0.00000000	      0.00000000
      1.68400000	   -172.53017718	    823.25426056	    -96.98623045	      0.73253241	      0.00000000	      0.29680540	      1.46325094	     -6.17111497	      0.79332266	      0.00000000	      0.00000000	      0.00000000	      0.00000000	      0.00000000	      0.00000000	      0.00000000	      0.00000000	      0.00000000
      1.68500000	   -144.53863018	    851.08487698	    -88.31520911	      0.73268384	      0.00000000	      0.29497902	      1.22042568	     -6.03663597	      0.70055924	      0.00000000	      0.00000000	      0.00000000	      0.00000000	      0.00000000	      0.00000000	      0.00000000	      0.00000000	      0.00000000
      1.68600000	   -117.36734356	    877.99773243	    -79.53558275	      0.73312508	      0.00000000	      0.29329542	      0.97008186	     -5.79240632	      0.59938885	      0.00000000	      0.00000000	      0.00000000	      0.00000000	      0.00000000	      0.00000000	      0.00000000	      0.00000000	      0.00000000
      1.68700000	    -92.23047339	    904.82734324	    -71.02443457	      0.73371488	      0.00000000	      0.29173942	      0.72765948	     -5.48290977	      0.49683231	      0.00000000	      0.00000000	      0.00000000	      0.00000000	      0.00000000	      0.00000000	      0.00000000	      0.00000000	      0.00000000
      1.68800000	    -71.19735876	    932.30226771	    -63.27911057	      0.73441453	      0.00000000	      0.29035218	      0.50974315	     -5.11776250	      0.39852344	      0.00000000	      0.00000000	      0.00000000	      0.00000000	      0.00000000	      0.00000000	      0.00000000	      0.00000000	      0.00000000
      1.68900000	    -54.54169428	    960.79190860	    -56.46446471	      0.73516013	      0.00000000	      0.28910062	      0.32022489	     -4.72269457	      0.30746685	      0.00000000	      0.00000000	      0.00000000	      0.00000000	      0.00000000	      0.00000000	      0.00000000	      0.00000000	      0.00000000
      1.69000000	    -44.36620622	    990.95351786	    -51.13408396	      0.73593615	      0.00000000	      0.28800668	      0.17192457	     -4.29948547	      0.22857867	      0.00000000	      0.00000000	      0.00000000	      0.00000000	      0.00000000	      0.00000000	      0.00000000	      0.00000000	      0.00000000
      1.69100000	    -39.94635215	   1022.61242020	    -47.18452899	      0.73672868	      0.00000000	      0.28702611	      0.05766103	     -3.85484502	      0.16073291	      0.00000000	      0.00000000	      0.00000000	      0.00000000	      0.00000000	      0.00000000	      0.00000000	      0.00000000	      0.00000000
      1.69200000	    -42.93792115	   1056.05738433	    -45.04403812	      0.73754933	      0.00000000	      0.28616807	     -0.01832533	     -3.37693505	      0.10648821	      0.00000000	      0.00000000	      0.00000000	      0.00000000	      0.00000000	      0.00000000	      0.00000000	      0.00000000	      0.00000000
      1.69300000	    -51.76236727	   1090.69812614	    -44.31038302	      0.73840855	      0.00000000	      0.28539308	     -0.06986891	     -2.86360934	      0.06208704	      0.00000000	      0.00000000	      0.00000000	      0.00000000	      0.00000000	      0.00000000	      0.00000000	      0.00000000	      0.00000000
      1.69400000	    -67.24574574	   1126.31479981	    -45.08929103	      0.73933989	      0.00000000	      0.28470276	     -0.10159476	     -2.29561562	      0.02776936	      0.00000000	      0.00000000	      0.00000000	      0.00000000	      0.00000000	      0.00000000	      0.00000000	      0.00000000	      0.00000000
